<svg xmlns="http://www.w3.org/2000/svg" width="110" height="59" viewBox="0 0 110 59">
  <metadata><?xpacket begin="﻿" id="W5M0MpCehiHzreSzNTczkc9d"?>
<x:xmpmeta xmlns:x="adobe:ns:meta/" x:xmptk="Adobe XMP Core 5.6-c138 79.159824, 2016/09/14-01:09:01        ">
   <rdf:RDF xmlns:rdf="http://www.w3.org/1999/02/22-rdf-syntax-ns#">
      <rdf:Description rdf:about=""/>
   </rdf:RDF>
</x:xmpmeta>
                                                                                                    
                                                                                                    
                                                                                                    
                                                                                                    
                                                                                                    
                                                                                                    
                                                                                                    
                                                                                                    
                                                                                                    
                                                                                                    
                                                                                                    
                                                                                                    
                                                                                                    
                                                                                                    
                                                                                                    
                                                                                                    
                                                                                                    
                                                                                                    
                                                                                                    
                                                                                                    
                           
<?xpacket end="w"?></metadata>
<defs>
    <style>
      .cls-1 {
        fill: #fff;
        fill-rule: evenodd;
      }
    </style>
  </defs>
  <path id="LOGO" class="cls-1" d="M129.434,45.654l-7.144,4.164,28.58,16.654V58.145Zm0-16.654L108,41.492l7.144,4.163,14.29-8.326L150.87,49.818V41.492Zm0,50.672L108,67.182v8.327L129.434,88,150.87,75.509l-7.146-4.163Zm0-8.326,7.146-4.164L108,50.527v8.328Zm28.573-13.858a10.4,10.4,0,0,0,6.862,2.5,6,6,0,0,0,3.475-.819,2.523,2.523,0,0,0,1.146-2.148,2.957,2.957,0,0,0-.959-2.12,17.148,17.148,0,0,0-4.637-2.552,12.085,12.085,0,0,1-4.544-3.181,6.452,6.452,0,0,1-1.412-4.148,6.294,6.294,0,0,1,2.636-5.371,11.385,11.385,0,0,1,6.914-1.941,15.433,15.433,0,0,1,6.041.965v4.708a10.134,10.134,0,0,0-5.9-1.69,6.205,6.205,0,0,0-3.295.776,2.4,2.4,0,0,0-1.258,2.138,2.79,2.79,0,0,0,.873,1.983,15.1,15.1,0,0,0,4.09,2.328,13.585,13.585,0,0,1,5.134,3.406,6.587,6.587,0,0,1,1.438,4.267,6.4,6.4,0,0,1-2.541,5.476,11.765,11.765,0,0,1-7.128,1.887,14.636,14.636,0,0,1-6.931-1.43V57.488ZM218,63.507H213.12V52.815H202.973V63.507H198.1V38.124h4.877V48.556H213.12V38.124H218V63.507Zm-22.212-2.716a5.427,5.427,0,0,1-1.453.352,2.19,2.19,0,0,1-1.321-.407,8.5,8.5,0,0,1-1.573-1.784,15.794,15.794,0,0,0,2.931-8.807,8.234,8.234,0,0,0-.164-1.841l-0.074-.317h-2.839l0.119,0.507a7.589,7.589,0,0,1,.218,1.716,11.988,11.988,0,0,1-1.724,6.357,12.66,12.66,0,0,0-4.279-4.195,4.84,4.84,0,0,0,3.031-4.423,4.073,4.073,0,0,0-1.4-3.2A5.23,5.23,0,0,0,183.7,43.54a5.513,5.513,0,0,0-3.747,1.27,4.394,4.394,0,0,0-1.479,3.471,5.08,5.08,0,0,0,1.814,3.872c-2.651,1.33-4,3.313-4,5.905a5.368,5.368,0,0,0,1.84,4.284,7.287,7.287,0,0,0,4.879,1.549,9.267,9.267,0,0,0,6.7-2.743,8.1,8.1,0,0,0,2.039,2.145,4.258,4.258,0,0,0,2.244.6,5.554,5.554,0,0,0,2.077-.388l0.256-.1V60.613Zm-13.168-7.07a9.337,9.337,0,0,1,2.888,1.7,18.146,18.146,0,0,1,2.756,3.506A6.826,6.826,0,0,1,183,61.271a4.2,4.2,0,0,1-2.815-.9,2.954,2.954,0,0,1-1.024-2.385,3.887,3.887,0,0,1,.791-2.511A6.444,6.444,0,0,1,182.618,53.721Zm1.08-7.7a2.331,2.331,0,0,1,1.6.574,1.931,1.931,0,0,1,.63,1.546c0,1.212-.977,2.188-2.907,2.9a3.142,3.142,0,0,1-1.812-2.774,2.086,2.086,0,0,1,.658-1.629A2.575,2.575,0,0,1,183.7,46.02Zm-19.634,23.8h-2.288v6.764h-1.554V69.821h-2.284v-1.3h6.126v1.3Zm4.649,4.314H164.9a1.437,1.437,0,0,0,1.652,1.469,2.952,2.952,0,0,0,1.7-.5v1.161a4,4,0,0,1-2.039.466,2.732,2.732,0,0,1-2.073-.778,3.025,3.025,0,0,1-.742-2.175,3.142,3.142,0,0,1,.8-2.227,2.607,2.607,0,0,1,1.993-.857,2.382,2.382,0,0,1,1.863.739,2.918,2.918,0,0,1,.67,2.032v0.673Zm-1.43-1a1.13,1.13,0,0,0-1.943-1,1.739,1.739,0,0,0-.443,1h2.386Zm6.785,3.226a3.278,3.278,0,0,1-1.681.368,2.734,2.734,0,0,1-2.875-2.882,2.927,2.927,0,0,1,3.132-3.155,3,3,0,0,1,1.424.274v1.341a2.092,2.092,0,0,0-1.272-.426,1.673,1.673,0,0,0-1.273.5,1.881,1.881,0,0,0-.478,1.354,1.841,1.841,0,0,0,.451,1.32,1.627,1.627,0,0,0,1.24.477,2.324,2.324,0,0,0,1.332-.438V76.36Zm6.479,0.224h-1.511V73.3c0-.951-0.344-1.424-1.033-1.424a1.075,1.075,0,0,0-.867.4A1.546,1.546,0,0,0,176.8,73.3v3.281h-1.517V68.522H176.8v3.194h0.017a2.024,2.024,0,0,1,1.794-1.024q1.935,0,1.935,2.356v3.538Zm6.784,0H185.82V73.359q0-1.479-1.06-1.478a1.072,1.072,0,0,0-.866.4,1.545,1.545,0,0,0-.334,1.022v3.281h-1.518V70.828h1.518v0.926h0.015a2.028,2.028,0,0,1,1.854-1.062q1.9,0,1.9,2.371v3.522Zm1.136-2.843a3,3,0,0,1,.827-2.231,3.038,3.038,0,0,1,2.239-.819,2.889,2.889,0,0,1,2.156.8,2.93,2.93,0,0,1,.79,2.15,3.08,3.08,0,0,1-.817,2.243A2.988,2.988,0,0,1,188.467,73.742ZM190,73.72q0,1.814,1.494,1.813,1.441,0,1.441-1.857,0-1.8-1.446-1.8a1.325,1.325,0,0,0-1.1.49A2.1,2.1,0,0,0,190,73.72Zm5.691,2.865V68.522H197.2v8.063h-1.511Zm2.729-2.843a3,3,0,0,1,.827-2.231,3.036,3.036,0,0,1,2.239-.819,2.886,2.886,0,0,1,2.155.8,2.931,2.931,0,0,1,.792,2.15,3.08,3.08,0,0,1-.818,2.243A2.987,2.987,0,0,1,198.421,73.742Zm1.533-.022q0,1.814,1.5,1.813,1.44,0,1.441-1.857,0-1.8-1.447-1.8a1.325,1.325,0,0,0-1.1.49A2.1,2.1,0,0,0,199.954,73.72Zm11.1,2.268a3.259,3.259,0,0,1-.875,2.451,3.489,3.489,0,0,1-2.539.852,4.075,4.075,0,0,1-1.836-.356V77.608a3.552,3.552,0,0,0,1.8.521,1.969,1.969,0,0,0,1.432-.5,1.88,1.88,0,0,0,.508-1.411V75.714h-0.021a2.018,2.018,0,0,1-1.833,1.014,2.139,2.139,0,0,1-1.717-.773,3.116,3.116,0,0,1-.652-2.082,3.53,3.53,0,0,1,.714-2.317,2.323,2.323,0,0,1,1.884-.865,1.786,1.786,0,0,1,1.6.843h0.021V70.828h1.511v5.159Zm-1.5-2.688a1.474,1.474,0,0,0-.363-1,1.177,1.177,0,0,0-.925-0.415,1.226,1.226,0,0,0-1.035.509,2.324,2.324,0,0,0-.383,1.425,1.983,1.983,0,0,0,.363,1.254,1.169,1.169,0,0,0,.968.465,1.225,1.225,0,0,0,1-.465,1.84,1.84,0,0,0,.38-1.2V73.3Zm8.258-2.471-2.408,6.353q-0.8,2.11-2.371,2.109a2.9,2.9,0,0,1-.918-0.125V77.922a1.459,1.459,0,0,0,.706.175,1,1,0,0,0,.973-0.7l0.348-.821-2.294-5.746h1.68l1.2,3.774q0.054,0.181.146,0.674H214.9a4.342,4.342,0,0,1,.164-0.662l1.239-3.785h1.511Z" transform="translate(-108 -29)"/>
</svg>
