<svg id="phone"  width="26" height="26" data-name="Слой 1" xmlns="http://www.w3.org/2000/svg" viewBox="0 0 56.79 58.79"><defs><style>.cls-1{fill:#999;}</style></defs><title>phone</title><g id="_05" data-name="05"><path class="cls-1" d="M63.73,49.46c-3.26-2.33-6.26-4.38-8.45-5.88l-.7-.49a8.65,8.65,0,0,0-4.47-1.39A5.57,5.57,0,0,0,46,43.06c-.76.73-1.94,2.15-2.08,2.31-.71.86-1,1.1-1.5,1.09a3.44,3.44,0,0,1-1.62-.66,36.38,36.38,0,0,1-5.61-4.72l-.2-.22A35.71,35.71,0,0,1,30.63,35c-1-1.88-.55-2.23.63-3.09.16-.12,1.65-1.22,2.44-1.92,2.16-1.95,2-6.09.51-8.59L34,21.05c-1.41-2.37-3.34-5.6-5.58-9.21a7.28,7.28,0,0,0-6-3.43,7.19,7.19,0,0,0-4.18,1.16l-.18.11c-4.08,2.51-6.65,5.69-7.62,9.46-1.06,4.06-1.82,15.28,13.81,32C37.09,64.74,47,67,51.73,67.18a15.84,15.84,0,0,0,3.56-.26c3.83-.74,7.17-3.09,9.93-7l.13-.18a7.33,7.33,0,0,0-1.62-10.28Zm-.47,8.73-.16.23c-2.37,3.34-5.16,5.34-8.3,6a13.73,13.73,0,0,1-3,.21c-4.35-.14-13.46-2.31-25.62-15.27C11.44,33.59,12.05,23.44,13,19.8c.8-3.1,3-5.76,6.46-7.9l.24-.15a4.72,4.72,0,0,1,6.53,1.46c2.23,3.59,4.15,6.82,5.55,9.17l.2.34c1,1.67,1,4.4,0,5.31-.5.44-1.48,1.2-2.24,1.76-1.23.9-3.51,2.56-1.37,6.45A38.24,38.24,0,0,0,33,42.53l.41.44a38,38,0,0,0,6,5,5.89,5.89,0,0,0,2.94,1.07,4.48,4.48,0,0,0,3.58-2c.6-.73,1.42-1.66,1.9-2.12A3.07,3.07,0,0,1,50,44.3a6.07,6.07,0,0,1,3.07.93l.71.49c2.18,1.5,5.16,3.55,8.41,5.86a4.73,4.73,0,0,1,1,6.61Z" transform="translate(-9.99 -8.4)"/></g><polygon class="cls-1" points="33.85 10.13 33.85 21.41 33.85 24.01 36.45 24.01 47.73 24.01 47.73 21.41 36.45 21.41 36.45 10.13 33.85 10.13"/></svg>